<?xml version="1.0" encoding="utf-8"?>
<!-- Generator: Adobe Illustrator 15.1.0, SVG Export Plug-In . SVG Version: 6.00 Build 0)  -->
<!DOCTYPE svg PUBLIC "-//W3C//DTD SVG 1.1//EN" "http://www.w3.org/Graphics/SVG/1.1/DTD/svg11.dtd">
<svg version="1.1" id="Layer_1" xmlns="http://www.w3.org/2000/svg" xmlns:xlink="http://www.w3.org/1999/xlink" x="0px" y="0px"
	 width="430.218px" height="504.781px" viewBox="0 0 430.218 504.781" enable-background="new 0 0 430.218 504.781"
	 xml:space="preserve">
<g>
	<path fill="#BD4932" d="M215.106,0L0,124.189v256.399l215.106,124.193l215.111-124.193V124.193L215.106,0z M419.129,374.187
		L215.106,491.975L11.089,374.187V130.594L215.106,12.806l204.022,117.792V374.187z"/>
	<path fill="#BD4932" d="M215.106,24.111L20.88,136.245v232.288L215.106,480.67l194.231-112.138V136.249L215.106,24.111z
		 M407.4,367.415L215.106,478.432L22.818,367.415V137.366L215.106,26.35L407.4,137.37V367.415z"/>
	<g>
		<path fill="#BD4932" d="M115.864,379.649l-1.959,1.117l-2.599-2.079l11.16-6.524l2.674,2.139l-3.987,12.262l-2.612-2.089
			l0.697-2.127L115.864,379.649z M121.474,376.145l-0.025-0.021l-3.411,2.19l2.037,1.629L121.474,376.145z"/>
		<path fill="#BD4932" d="M136.887,386.314c-0.223-0.716-0.668-1.384-1.313-1.801c-0.484-0.312-1.312-0.447-1.676,0.117
			c-0.382,0.592,0.183,1.28,0.544,1.724l0.542,0.636c1.143,1.328,1.771,2.744,0.712,4.384c-0.651,1.009-1.562,1.888-2.811,2.052
			c-1.227,0.16-2.472-0.243-3.493-0.903c-1.277-0.825-2.25-2.062-2.816-3.457l2.501-1.395c0.285,1.004,0.761,1.978,1.662,2.56
			c0.618,0.399,1.477,0.516,1.937-0.197c0.478-0.739-0.393-1.663-0.853-2.189c-1.35-1.538-2.161-2.672-0.893-4.634
			c1.328-2.058,3.662-2.455,5.692-1.145c1.021,0.66,2.063,1.79,2.634,2.883L136.887,386.314z"/>
		<path fill="#BD4932" d="M143.676,400.442l-2.775-1.462l4.387-8.326l-2.294-1.209l1.239-2.351l7.363,3.88l-1.239,2.351
			l-2.294-1.209L143.676,400.442z"/>
		<path fill="#BD4932" d="M161.169,408.269l-3.607-1.489l-0.965-5.417l-0.03-0.013l-1.77,4.288l-2.898-1.196l4.602-11.148
			l4.332,1.788c2.203,0.909,3.441,2.649,2.458,5.029c-0.635,1.538-2.042,2.515-3.74,2.143L161.169,408.269z M157.335,399.487
			l0.281,0.115c0.946,0.391,2.084,0.653,2.585-0.56c0.5-1.212-0.491-1.829-1.438-2.22l-0.281-0.116L157.335,399.487z"/>
		<path fill="#BD4932" d="M181.2,407.906c-1.075,3.753-4.525,5.627-8.248,4.56c-3.722-1.067-5.654-4.484-4.579-8.237
			c1.005-3.507,4.787-5.086,8.125-4.129C179.835,401.057,182.206,404.399,181.2,407.906z M171.507,405.144
			c-0.574,2,0.484,3.884,2.283,4.4c1.8,0.516,3.695-0.522,4.269-2.521c0.458-1.6-0.599-3.484-2.398-4
			C173.86,402.506,171.965,403.544,171.507,405.144z"/>
		<path fill="#BD4932" d="M188.243,403.481l3.098,0.487l4.529,8.181l0.031,0.005l1.146-7.288l3.098,0.487l-1.875,11.92l-3.098-0.487
			l-4.526-8.196l-0.032-0.005l-1.148,7.303l-3.099-0.487L188.243,403.481z"/>
		<path fill="#BD4932" d="M218.848,412.194c-0.135,3.902-3.027,6.557-6.897,6.424c-3.869-0.134-6.574-2.98-6.439-6.882
			c0.125-3.646,3.411-6.095,6.881-5.976C215.862,405.88,218.973,408.549,218.848,412.194z M208.772,411.864
			c-0.072,2.079,1.411,3.65,3.282,3.715s3.458-1.402,3.529-3.48c0.058-1.663-1.425-3.235-3.296-3.3
			C210.417,408.735,208.829,410.201,208.772,411.864z"/>
		<path fill="#BD4932" d="M225.942,406.137l3.075-0.279l3.021,6.198l1.996-6.655l3.106-0.282l2.909,11.846l-3.122,0.284
			l-1.506-6.834l-0.031,0.003l-2.255,7.176l-1.242,0.113l-3.385-6.663l-0.032,0.003l-0.374,7.005l-3.106,0.283L225.942,406.137z"/>
		<path fill="#BD4932" d="M243.088,404.229l3.68-0.781l2.889,2.74l1.526-3.679l3.679-0.781l-3.049,7.062l1.204,5.667l-3.068,0.652
			l-1.204-5.668L243.088,404.229z"/>
		<path fill="#BD4932" d="M278.55,397.86c-0.913-0.566-2.051-0.613-3.046-0.218c-1.784,0.709-2.444,2.555-1.754,4.293
			c0.703,1.769,2.43,2.562,4.243,1.842c0.951-0.378,1.719-1.216,2.039-2.187l1.388,3.492c-0.848,0.682-1.458,1.182-2.364,1.542
			c-1.561,0.62-3.283,0.616-4.861,0.021c-1.677-0.624-2.82-1.856-3.481-3.521c-0.608-1.531-0.613-3.232,0.02-4.758
			c0.651-1.566,1.97-2.882,3.545-3.508c0.937-0.372,1.881-0.507,2.885-0.492L278.55,397.86z"/>
		<path fill="#BD4932" d="M289.764,398.441l3.353-1.699l1.201,2.368l-6.149,3.117l-5.453-10.757l2.796-1.418L289.764,398.441z"/>
		<path fill="#BD4932" d="M302.355,380.179l3.629,5.732c0.831,1.312,1.599,2.644,1.209,4.272c-0.32,1.377-1.471,2.522-2.66,3.275
			s-2.717,1.304-4.099,1.005c-1.64-0.346-2.516-1.609-3.346-2.92l-3.629-5.732l2.649-1.678l3.398,5.367
			c0.839,1.324,1.85,2.711,3.553,1.633c1.703-1.079,0.882-2.585,0.043-3.91l-3.398-5.367L302.355,380.179z"/>
		<path fill="#BD4932" d="M314.902,385.993l-7.479-9.469l3.517-2.777c1.683-1.329,3.328-1.568,4.757,0.24
			c0.674,0.854,0.943,1.763,0.484,2.757l0.021,0.025c1.495-0.896,2.797-0.436,3.838,0.884c1.567,1.983,0.388,3.976-1.346,5.345
			L314.902,385.993z M312.821,378.298l0.276-0.219c0.652-0.516,1.241-1.164,0.606-1.968c-0.685-0.866-1.49-0.312-2.155,0.214
			l-0.176,0.139L312.821,378.298z M315.876,382.165l0.313-0.247c0.729-0.575,1.989-1.51,1.166-2.553
			c-0.902-1.143-2.031-0.067-2.835,0.567l-0.252,0.198L315.876,382.165z"/>
	</g>
	<g>
		<path fill="#BD4932" d="M110.077,130.136c-1.059-0.182-2.131,0.2-2.906,0.94c-1.388,1.325-1.308,3.284-0.016,4.638
			c1.314,1.377,3.213,1.465,4.624,0.117c0.74-0.707,1.138-1.771,1.071-2.792l2.596,2.718c-0.531,0.949-0.909,1.643-1.614,2.316
			c-1.214,1.16-2.813,1.803-4.5,1.843c-1.789,0.05-3.311-0.665-4.548-1.96c-1.138-1.191-1.781-2.768-1.765-4.418
			c0.016-1.697,0.746-3.411,1.972-4.582c0.729-0.696,1.554-1.175,2.49-1.538L110.077,130.136z"/>
		<path fill="#BD4932" d="M121.651,128.128l0.623,2.168l-2.634,2.035l-3.702-12.386l2.71-2.093l10.972,6.771l-2.647,2.044
			l-1.902-1.179L121.651,128.128z M119.572,121.85l-0.025,0.02l1.322,3.832l2.064-1.594L119.572,121.85z"/>
		<path fill="#BD4932" d="M142.756,116.333l-3.329,2.044l-4.953-2.406l-0.027,0.017l2.43,3.956l-2.674,1.642l-6.316-10.286
			l3.997-2.455c2.033-1.248,4.169-1.226,5.518,0.97c0.871,1.418,0.834,3.132-0.467,4.288L142.756,116.333z M133.392,114.268
			l0.259-0.159c0.873-0.536,1.754-1.303,1.067-2.421c-0.687-1.119-1.77-0.679-2.643-0.143l-0.259,0.159L133.392,114.268z"/>
		<path fill="#BD4932" d="M142.344,102.848l2.841-1.328l8.327,4.25l0.029-0.014l-3.124-6.683l2.841-1.328l5.108,10.93l-2.841,1.328
			l-8.334-4.265l-0.029,0.014l3.13,6.697l-2.841,1.328L142.344,102.848z"/>
		<path fill="#BD4932" d="M164.434,96.422l0.654,1.907l3.345-1.146l0.861,2.513l-3.346,1.146l0.675,1.968l3.526-1.208l0.861,2.513
			l-6.493,2.226l-3.912-11.413l6.494-2.226l0.861,2.513L164.434,96.422z"/>
		<path fill="#BD4932" d="M187.427,92.977c0.361,1.723,0.572,3.217-0.137,4.922c-0.786,1.87-2.356,2.968-4.321,3.418
			c-3.696,0.846-6.844-1.076-7.69-4.771c-0.875-3.82,1.14-6.924,4.929-7.792c2.417-0.554,4.538,0.109,6.056,2.076l-2.622,1.881
			c-0.679-1.027-1.738-1.572-2.97-1.29c-2.012,0.46-2.618,2.618-2.207,4.411c0.418,1.825,1.934,3.431,3.945,2.97
			c1.326-0.303,2.183-1.222,1.996-2.607l-2.494,0.571l-0.551-2.401L187.427,92.977z"/>
		<path fill="#BD4932" d="M197.993,98.293l-3.11,0.41l-1.576-11.965l3.11-0.41L197.993,98.293z"/>
		<path fill="#BD4932" d="M207.238,88.046l0.107,2.013l3.53-0.189l0.143,2.652l-3.531,0.188l0.111,2.077l3.723-0.199l0.142,2.652
			l-6.854,0.367l-0.645-12.046l6.854-0.367l0.141,2.652L207.238,88.046z"/>
		<path fill="#BD4932" d="M230.822,85.715l3.062,0.383l1.628,6.699l3.37-6.074l3.095,0.387l0.313,12.191l-3.11-0.389l-0.012-6.996
			l-0.032-0.004l-3.732,6.528l-1.238-0.155l-1.885-7.23l-0.031-0.004l-1.861,6.762l-3.094-0.387L230.822,85.715z"/>
		<path fill="#BD4932" d="M253.273,92.178l-0.473,1.959l3.436,0.83l-0.623,2.581l-3.436-0.83l-0.488,2.021l3.623,0.875l-0.623,2.581
			l-6.671-1.61l2.83-11.724l6.671,1.61l-0.623,2.581L253.273,92.178z"/>
		<path fill="#BD4932" d="M264.74,102.5l3.564,1.198l-0.846,2.518l-6.537-2.197l3.843-11.436l2.973,0.999L264.74,102.5z"/>
		<path fill="#BD4932" d="M276.624,107.078l3.45,1.492l-1.055,2.437l-6.326-2.736l4.786-11.068l2.877,1.244L276.624,107.078z"/>
		<path fill="#BD4932" d="M298.209,114.167c-1.913,3.403-5.703,4.429-9.078,2.531s-4.467-5.669-2.553-9.072
			c1.788-3.18,5.832-3.843,8.859-2.141C298.463,107.187,299.998,110.987,298.209,114.167z M289.416,109.239
			c-1.02,1.813-0.426,3.891,1.205,4.809c1.632,0.917,3.716,0.346,4.735-1.467c0.815-1.451,0.222-3.528-1.409-4.446
			C292.314,107.217,290.23,107.789,289.416,109.239z"/>
		<path fill="#BD4932" d="M307.27,113.172l2.524,1.86l0.248,9.344l0.026,0.019l4.375-5.937l2.523,1.86l-7.156,9.71l-2.523-1.859
			l-0.238-9.358l-0.025-0.019l-4.386,5.95l-2.524-1.86L307.27,113.172z"/>
		<path fill="#BD4932" d="M319.238,133.895c1.033-1.104,2.737-1.171,3.841-0.138c1.1,1.03,1.152,2.737,0.119,3.842
			c-1.025,1.094-2.732,1.157-3.832,0.127C318.261,136.692,318.215,134.989,319.238,133.895z M322.728,137.159
			c0.833-0.89,0.763-2.137-0.087-2.932c-0.865-0.81-2.1-0.783-2.933,0.107c-0.823,0.879-0.767,2.113,0.097,2.922
			C320.654,138.051,321.905,138.039,322.728,137.159z M321.227,137.641l-0.499-0.468l0.354-1.3l-0.32-0.299l-0.813,0.871
			l-0.46-0.431l1.927-2.06l1,0.936c0.475,0.444,0.719,0.833,0.211,1.378c-0.356,0.38-0.695,0.352-1.084,0.036L321.227,137.641z
			 M321.601,135.777c0.23,0.215,0.408,0.287,0.65,0.026c0.197-0.209-0.067-0.458-0.268-0.645l-0.445-0.416l-0.486,0.52
			L321.601,135.777z"/>
	</g>
	<g>
		<g>
			<g>
				<path fill-rule="evenodd" clip-rule="evenodd" fill="#BD4932" d="M49.202,342.942l13.459,1.58l316.685-69.446l2.543-6.384
					L53.4,340.126C53.4,340.126,45.706,341.662,49.202,342.942L49.202,342.942z"/>
				<path fill-rule="evenodd" clip-rule="evenodd" fill="#BD4932" d="M383.373,158.873l-13.464-1.589L50.341,228.006l-2.542,6.378
					l331.376-72.699C379.175,161.685,386.86,160.153,383.373,158.873L383.373,158.873z"/>
				<g>
					<polygon fill-rule="evenodd" clip-rule="evenodd" fill="#BD4932" points="170.905,285.759 167.216,296.601 192.862,290.933 
						189.786,281.601 191.013,241.249 192.015,240.079 199.56,238.41 203.042,237.536 206.543,238.256 207.077,229.591 
						204.455,221.384 156.069,232.313 161.821,247.861 163.645,246.334 171.197,244.665 172.124,245.411 170.905,285.759 					"/>
					<polygon fill-rule="evenodd" clip-rule="evenodd" fill="#BD4932" points="127.544,257.083 129.089,253.878 132.033,251.795 
						145.779,248.758 152.074,249.336 145.784,233.674 121.368,238.883 108.412,254.144 107.931,269.99 116.375,276.718 
						131.283,276.771 133.631,278.643 133.512,282.483 131.967,285.688 129.018,287.771 115.166,290.817 104.766,288.39 
						108.46,300.652 113.383,306.744 139.652,301.642 152.622,286.377 153.187,267.642 144.274,260.544 129.367,260.5 
						127.486,259.008 127.544,257.083 					"/>
					<path fill-rule="evenodd" clip-rule="evenodd" fill="#BD4932" d="M102.974,309.578l-3.47-5.862l-13.879-50.924l1.643-6.56
						l-32.922,7.257l1.267,5.925l-15.172,56.31l-4.11,8.537l22.275-4.918l-0.746-7.46l1.629-6.092l1.002-1.175l15.976-3.531
						l0.932,0.751l1.271,5.447l-1.196,7.893L102.974,309.578z M73.216,287.498l-8.701,1.916l-0.949-0.751l5.47-21.719l0.578-3.47
						l0.389,3.267l4.216,19.582L73.216,287.498z"/>
					<path fill-rule="evenodd" clip-rule="evenodd" fill="#BD4932" d="M264.102,265.541l-6.22-16.753l8.975-10.567l0.561-18.735
						l-12.206-9.711l-42.1,9.288l2.189,7.155l-1.575,51.877l-2.662,8.22l23.232-5.138l-2.185-7.143l0.432-13.932l0.998-1.174
						l5.319-1.175l1.911,0.538l6.596,20.016l21.784-4.812L264.102,265.541z M248.205,234.698l-2.043,4.269l-3.93,2.772l-8.228,1.822
						l-0.94-0.754l0.361-11.999l1.003-1.183l8.228-1.814l3.811,1.072l1.822,3.408L248.205,234.698z"/>
					<path fill-rule="evenodd" clip-rule="evenodd" fill="#BD4932" d="M319.475,195.644l-29.999,6.631l-12.97,15.256l-1.28,42.263
						l12.206,9.712l30.013-6.612l12.956-15.274l1.285-42.258L319.475,195.644z M311.317,242.771l-2.057,4.265l-3.925,2.781
						l-4.843,1.068l-3.81-1.068l-1.823-3.417l0.76-24.981l2.057-4.26l3.929-2.78l4.834-1.068l3.818,1.068l1.828,3.412
						L311.317,242.771z"/>
					<g>
						<path fill="#BD4932" d="M387.518,227.454l-7.062,21.101l-26.481,5.985l-12.811-10.418l1.293-40.245l13.671-16.399
							l25.542-5.783l5.796,18.196l-11.226-1.263l-6.428,1.448l-5.765,4.153l-2.525,5.328l-0.648,20.121l2.216,4.256l5.58,1.589
							l7.381-1.669L387.518,227.454z"/>
					</g>
				</g>
			</g>
		</g>
		<path fill="#BD4932" d="M288.975,167.621c-19.845-17.667-45.993-28.406-74.653-28.406c-46.195,0-85.872,27.891-103.124,67.75
			L288.975,167.621z"/>
		<path fill="#BD4932" d="M139.424,335.24c19.875,17.797,46.12,28.624,74.897,28.624c46.192,0,85.86-27.888,103.116-67.739
			L139.424,335.24z"/>
	</g>
</g>
</svg>
