<?xml version="1.0" encoding="utf-8"?>
<!-- Generator: Adobe Illustrator 15.1.0, SVG Export Plug-In . SVG Version: 6.00 Build 0)  -->
<!DOCTYPE svg PUBLIC "-//W3C//DTD SVG 1.1//EN" "http://www.w3.org/Graphics/SVG/1.1/DTD/svg11.dtd">
<svg version="1.1" id="Layer_1" xmlns="http://www.w3.org/2000/svg" xmlns:xlink="http://www.w3.org/1999/xlink" x="0px" y="0px"
	 width="106.5px" height="63.354px" viewBox="-15.375 0 106.5 63.354" enable-background="new -15.375 0 106.5 63.354"
	 xml:space="preserve">
<g opacity="0.12" enable-background="new    ">
	<g>
		<g>
			<defs>
				<rect id="SVGID_1_" x="-17.215" y="0" width="109.703" height="63.354"/>
			</defs>
			<clipPath id="SVGID_2_">
				<use xlink:href="#SVGID_1_"  overflow="visible"/>
			</clipPath>
			<g clip-path="url(#SVGID_2_)">
				<polygon fill="none" stroke="#224455" stroke-width="5" stroke-miterlimit="10" points="-35.519,31.677 -53.808,0 
					-35.519,-31.677 1.059,-31.677 19.348,0 1.059,31.677 				"/>
				<polygon fill="none" stroke="#224455" stroke-width="5" stroke-miterlimit="10" points="-35.519,95.031 -53.808,63.354 
					-35.519,31.677 1.059,31.677 19.348,63.354 1.059,95.031 				"/>
				<polygon fill="none" stroke="#224455" stroke-width="5" stroke-miterlimit="10" points="19.348,63.354 1.059,31.677 19.348,0 
					55.926,0 74.213,31.677 55.926,63.354 				"/>
				<polygon fill="none" stroke="#224455" stroke-width="5" stroke-miterlimit="10" points="74.215,31.677 55.926,0 74.215,-31.677 
					110.793,-31.677 129.083,0 110.793,31.677 				"/>
				<polygon fill="none" stroke="#224455" stroke-width="5" stroke-miterlimit="10" points="74.215,95.031 55.926,63.354 
					74.215,31.677 110.793,31.677 129.083,63.354 110.793,95.031 				"/>
			</g>
		</g>
	</g>
</g>
</svg>
